<svg xmlns="http://www.w3.org/2000/svg" width="1200" height="900" viewBox="0 0 1200 900">
<rect x="0" y="0" width="1200" height="900" rx="0" fill="#ffffff" stroke="none" stroke-width="1.6"/>
<text x="24" y="38" font-family="DejaVu Sans, Arial, Helvetica, sans-serif" font-size="22" text-anchor="start" font-weight="bold" fill="#1b1b1b">FlyClap — схема підключення (варіант A: фототранзистори + LM339)</text>
<rect x="24" y="60" width="300" height="470" rx="10" fill="#f7f9fc" stroke="#b8c2cf" stroke-width="1.4"/>
<text x="38" y="84" font-family="DejaVu Sans, Arial, Helvetica, sans-serif" font-size="15" text-anchor="start" font-weight="bold" fill="#1b1b1b">Живлення</text>
<rect x="44" y="100" width="130" height="64" rx="6" fill="#3d3d3d" stroke="#222" stroke-width="1.6"/>
<text x="109" y="128" font-family="DejaVu Sans, Arial, Helvetica, sans-serif" font-size="14" text-anchor="middle" font-weight="bold" fill="#fff">БЖ 12 В</text>
<text x="109" y="148" font-family="DejaVu Sans, Arial, Helvetica, sans-serif" font-size="12" text-anchor="middle" font-weight="normal" fill="#ddd">2 А</text>
<text x="182" y="118" font-family="DejaVu Sans, Arial, Helvetica, sans-serif" font-size="13" text-anchor="start" font-weight="bold" fill="#d62828">+</text>
<text x="182" y="160" font-family="DejaVu Sans, Arial, Helvetica, sans-serif" font-size="15" text-anchor="start" font-weight="bold" fill="#1b1b1b">−</text>
<polyline points="174,122 290,122" fill="none" stroke="#d62828" stroke-width="2.4" stroke-linejoin="round" stroke-linecap="round"/>
<circle cx="240" cy="122" r="4" fill="#d62828" stroke="#d62828" stroke-width="1"/>
<polyline points="240,122 240,350 174,350" fill="none" stroke="#d62828" stroke-width="2.4" stroke-linejoin="round" stroke-linecap="round"/>
<circle cx="290" cy="122" r="4" fill="#d62828" stroke="#d62828" stroke-width="1"/>
<text x="186" y="105" font-family="DejaVu Sans, Arial, Helvetica, sans-serif" font-size="12" text-anchor="start" font-weight="bold" fill="#d62828">+12V → соленоїд</text>
<polyline points="174,152 205,152 205,170" fill="none" stroke="#222222" stroke-width="2.4" stroke-linejoin="round" stroke-linecap="round"/>
<line x1="205" y1="170" x2="205" y2="180" stroke="#222222" stroke-width="2.2" stroke-linecap="round"/>
<line x1="193" y1="180" x2="217" y2="180" stroke="#222222" stroke-width="2.2" stroke-linecap="round"/>
<line x1="197" y1="184" x2="213" y2="184" stroke="#222222" stroke-width="2.2" stroke-linecap="round"/>
<line x1="201" y1="188" x2="209" y2="188" stroke="#222222" stroke-width="2.2" stroke-linecap="round"/>
<rect x="44" y="330" width="130" height="76" rx="6" fill="#1f7a4d" stroke="#145236" stroke-width="1.6"/>
<text x="109" y="358" font-family="DejaVu Sans, Arial, Helvetica, sans-serif" font-size="14" text-anchor="middle" font-weight="bold" fill="#fff">DC-DC</text>
<text x="109" y="376" font-family="DejaVu Sans, Arial, Helvetica, sans-serif" font-size="12" text-anchor="middle" font-weight="normal" fill="#e6f4ec">5–6 В ≥3 А</text>
<text x="109" y="394" font-family="DejaVu Sans, Arial, Helvetica, sans-serif" font-size="11" text-anchor="middle" font-weight="normal" fill="#cde9da">XL4015</text>
<polyline points="174,390 205,390 205,408" fill="none" stroke="#222222" stroke-width="2.4" stroke-linejoin="round" stroke-linecap="round"/>
<line x1="205" y1="408" x2="205" y2="418" stroke="#222222" stroke-width="2.2" stroke-linecap="round"/>
<line x1="193" y1="418" x2="217" y2="418" stroke="#222222" stroke-width="2.2" stroke-linecap="round"/>
<line x1="197" y1="422" x2="213" y2="422" stroke="#222222" stroke-width="2.2" stroke-linecap="round"/>
<line x1="201" y1="426" x2="209" y2="426" stroke="#222222" stroke-width="2.2" stroke-linecap="round"/>
<polyline points="109,406 109,470 200,470" fill="none" stroke="#8e44ad" stroke-width="2.4" stroke-linejoin="round" stroke-linecap="round"/>
<circle cx="150" cy="470" r="4" fill="#8e44ad" stroke="#8e44ad" stroke-width="1"/>
<line x1="150" y1="470" x2="150" y2="483.5" stroke="#1b1b1b" stroke-width="2.2" stroke-linecap="round"/>
<line x1="150" y1="491.5" x2="150" y2="505" stroke="#1b1b1b" stroke-width="2.2" stroke-linecap="round"/>
<line x1="138" y1="483.5" x2="162" y2="483.5" stroke="#1b1b1b" stroke-width="2.6" stroke-linecap="round"/>
<path d="M138,494.5 Q150,488.5 162,494.5" fill="none" stroke="#1b1b1b" stroke-width="2.6" stroke-linejoin="round" stroke-linecap="round" />
<text x="134" y="481.5" font-family="DejaVu Sans, Arial, Helvetica, sans-serif" font-size="12" text-anchor="end" font-weight="normal" fill="#1b1b1b">+</text>
<text x="132" y="492.5" font-family="DejaVu Sans, Arial, Helvetica, sans-serif" font-size="12" text-anchor="end" font-weight="normal" fill="#1b1b1b">470 мкФ</text>
<line x1="150" y1="505" x2="150" y2="515" stroke="#222222" stroke-width="2.2" stroke-linecap="round"/>
<line x1="138" y1="515" x2="162" y2="515" stroke="#222222" stroke-width="2.2" stroke-linecap="round"/>
<line x1="142" y1="519" x2="158" y2="519" stroke="#222222" stroke-width="2.2" stroke-linecap="round"/>
<line x1="146" y1="523" x2="154" y2="523" stroke="#222222" stroke-width="2.2" stroke-linecap="round"/>
<text x="206" y="475" font-family="DejaVu Sans, Arial, Helvetica, sans-serif" font-size="12" text-anchor="start" font-weight="bold" fill="#8e44ad">V_servo → серво</text>
<rect x="360" y="140" width="140" height="386" rx="8" fill="#0f5c8c" stroke="#0b3a58" stroke-width="2"/>
<text x="430.0" y="166" font-family="DejaVu Sans, Arial, Helvetica, sans-serif" font-size="15" text-anchor="middle" font-weight="bold" fill="#ffffff">Arduino Nano</text>
<text x="430.0" y="182" font-family="DejaVu Sans, Arial, Helvetica, sans-serif" font-size="11" text-anchor="middle" font-weight="normal" fill="#d7e6f3">(або Uno)</text>
<rect x="355" y="226" width="10" height="10" rx="0" fill="#e9c46a" stroke="#8a6d1f" stroke-width="1"/>
<text x="372" y="236" font-family="DejaVu Sans, Arial, Helvetica, sans-serif" font-size="13" text-anchor="start" font-weight="bold" fill="#ffffff">VIN</text>
<rect x="355" y="292" width="10" height="10" rx="0" fill="#e9c46a" stroke="#8a6d1f" stroke-width="1"/>
<text x="372" y="302" font-family="DejaVu Sans, Arial, Helvetica, sans-serif" font-size="13" text-anchor="start" font-weight="bold" fill="#ffffff">5V</text>
<rect x="355" y="358" width="10" height="10" rx="0" fill="#e9c46a" stroke="#8a6d1f" stroke-width="1"/>
<text x="372" y="368" font-family="DejaVu Sans, Arial, Helvetica, sans-serif" font-size="13" text-anchor="start" font-weight="bold" fill="#ffffff">GND</text>
<rect x="495" y="193" width="10" height="10" rx="0" fill="#e9c46a" stroke="#8a6d1f" stroke-width="1"/>
<text x="488" y="203" font-family="DejaVu Sans, Arial, Helvetica, sans-serif" font-size="13" text-anchor="end" font-weight="bold" fill="#ffffff">D4</text>
<rect x="495" y="226" width="10" height="10" rx="0" fill="#e9c46a" stroke="#8a6d1f" stroke-width="1"/>
<text x="488" y="236" font-family="DejaVu Sans, Arial, Helvetica, sans-serif" font-size="13" text-anchor="end" font-weight="bold" fill="#ffffff">D5</text>
<rect x="495" y="259" width="10" height="10" rx="0" fill="#e9c46a" stroke="#8a6d1f" stroke-width="1"/>
<text x="488" y="269" font-family="DejaVu Sans, Arial, Helvetica, sans-serif" font-size="13" text-anchor="end" font-weight="bold" fill="#ffffff">D6</text>
<rect x="495" y="292" width="10" height="10" rx="0" fill="#e9c46a" stroke="#8a6d1f" stroke-width="1"/>
<text x="488" y="302" font-family="DejaVu Sans, Arial, Helvetica, sans-serif" font-size="13" text-anchor="end" font-weight="bold" fill="#ffffff">D7</text>
<rect x="495" y="325" width="10" height="10" rx="0" fill="#e9c46a" stroke="#8a6d1f" stroke-width="1"/>
<text x="488" y="335" font-family="DejaVu Sans, Arial, Helvetica, sans-serif" font-size="13" text-anchor="end" font-weight="bold" fill="#ffffff">D8</text>
<rect x="495" y="358" width="10" height="10" rx="0" fill="#e9c46a" stroke="#8a6d1f" stroke-width="1"/>
<text x="488" y="368" font-family="DejaVu Sans, Arial, Helvetica, sans-serif" font-size="13" text-anchor="end" font-weight="bold" fill="#ffffff">D9</text>
<rect x="495" y="391" width="10" height="10" rx="0" fill="#e9c46a" stroke="#8a6d1f" stroke-width="1"/>
<text x="488" y="401" font-family="DejaVu Sans, Arial, Helvetica, sans-serif" font-size="13" text-anchor="end" font-weight="bold" fill="#ffffff">D10</text>
<rect x="495" y="424" width="10" height="10" rx="0" fill="#e9c46a" stroke="#8a6d1f" stroke-width="1"/>
<text x="488" y="434" font-family="DejaVu Sans, Arial, Helvetica, sans-serif" font-size="13" text-anchor="end" font-weight="bold" fill="#ffffff">D11</text>
<rect x="495" y="457" width="10" height="10" rx="0" fill="#e9c46a" stroke="#8a6d1f" stroke-width="1"/>
<text x="488" y="467" font-family="DejaVu Sans, Arial, Helvetica, sans-serif" font-size="13" text-anchor="end" font-weight="bold" fill="#ffffff">D13</text>
<rect x="495" y="490" width="10" height="10" rx="0" fill="#e9c46a" stroke="#8a6d1f" stroke-width="1"/>
<text x="488" y="500" font-family="DejaVu Sans, Arial, Helvetica, sans-serif" font-size="13" text-anchor="end" font-weight="bold" fill="#ffffff">A0</text>
<polyline points="290,122 290,231 360,231" fill="none" stroke="#d62828" stroke-width="2.4" stroke-linejoin="round" stroke-linecap="round"/>
<polyline points="360,297 310,297" fill="none" stroke="#f08c00" stroke-width="2.4" stroke-linejoin="round" stroke-linecap="round"/>
<text x="304" y="302" font-family="DejaVu Sans, Arial, Helvetica, sans-serif" font-size="13" text-anchor="end" font-weight="bold" fill="#f08c00">+5V</text>
<polyline points="360,363 336,363 336,379" fill="none" stroke="#222222" stroke-width="2.4" stroke-linejoin="round" stroke-linecap="round"/>
<line x1="336" y1="379" x2="336" y2="389" stroke="#222222" stroke-width="2.2" stroke-linecap="round"/>
<line x1="324" y1="389" x2="348" y2="389" stroke="#222222" stroke-width="2.2" stroke-linecap="round"/>
<line x1="328" y1="393" x2="344" y2="393" stroke="#222222" stroke-width="2.2" stroke-linecap="round"/>
<line x1="332" y1="397" x2="340" y2="397" stroke="#222222" stroke-width="2.2" stroke-linecap="round"/>
<polyline points="500,198 512,198" fill="none" stroke="#1f6fd1" stroke-width="2.4" stroke-linejoin="round" stroke-linecap="round"/>
<rect x="514" y="189" width="31" height="18" rx="4" fill="#e6f4f3" stroke="#0b7a75" stroke-width="1.2"/>
<text x="529.5" y="202" font-family="DejaVu Sans, Arial, Helvetica, sans-serif" font-size="11" text-anchor="middle" font-weight="bold" fill="#0b7a75">B·3</text>
<text x="549" y="203" font-family="DejaVu Sans, Arial, Helvetica, sans-serif" font-size="12" text-anchor="start" font-weight="normal" fill="#1f6fd1">← ІЧ к.1 (п.2)</text>
<polyline points="500,231 512,231" fill="none" stroke="#1f6fd1" stroke-width="2.4" stroke-linejoin="round" stroke-linecap="round"/>
<rect x="514" y="222" width="31" height="18" rx="4" fill="#e6f4f3" stroke="#0b7a75" stroke-width="1.2"/>
<text x="529.5" y="235" font-family="DejaVu Sans, Arial, Helvetica, sans-serif" font-size="11" text-anchor="middle" font-weight="bold" fill="#0b7a75">B·4</text>
<text x="549" y="236" font-family="DejaVu Sans, Arial, Helvetica, sans-serif" font-size="12" text-anchor="start" font-weight="normal" fill="#1f6fd1">← ІЧ к.2 (п.1)</text>
<polyline points="500,264 512,264" fill="none" stroke="#1f6fd1" stroke-width="2.4" stroke-linejoin="round" stroke-linecap="round"/>
<rect x="514" y="255" width="31" height="18" rx="4" fill="#e6f4f3" stroke="#0b7a75" stroke-width="1.2"/>
<text x="529.5" y="268" font-family="DejaVu Sans, Arial, Helvetica, sans-serif" font-size="11" text-anchor="middle" font-weight="bold" fill="#0b7a75">B·5</text>
<text x="549" y="269" font-family="DejaVu Sans, Arial, Helvetica, sans-serif" font-size="12" text-anchor="start" font-weight="normal" fill="#1f6fd1">← ІЧ к.3 (п.14)</text>
<polyline points="500,297 512,297" fill="none" stroke="#1f6fd1" stroke-width="2.4" stroke-linejoin="round" stroke-linecap="round"/>
<rect x="514" y="288" width="31" height="18" rx="4" fill="#e6f4f3" stroke="#0b7a75" stroke-width="1.2"/>
<text x="529.5" y="301" font-family="DejaVu Sans, Arial, Helvetica, sans-serif" font-size="11" text-anchor="middle" font-weight="bold" fill="#0b7a75">B·6</text>
<text x="549" y="302" font-family="DejaVu Sans, Arial, Helvetica, sans-serif" font-size="12" text-anchor="start" font-weight="normal" fill="#1f6fd1">← ІЧ к.4 (п.13)</text>
<polyline points="500,330 512,330" fill="none" stroke="#1f6fd1" stroke-width="2.4" stroke-linejoin="round" stroke-linecap="round"/>
<rect x="514" y="321" width="38" height="18" rx="4" fill="#e6f4f3" stroke="#0b7a75" stroke-width="1.2"/>
<text x="533.0" y="334" font-family="DejaVu Sans, Arial, Helvetica, sans-serif" font-size="11" text-anchor="middle" font-weight="bold" fill="#0b7a75">S1·3</text>
<text x="556" y="335" font-family="DejaVu Sans, Arial, Helvetica, sans-serif" font-size="12" text-anchor="start" font-weight="normal" fill="#1f6fd1">← кінцевик</text>
<polyline points="500,363 512,363" fill="none" stroke="#1f6fd1" stroke-width="2.4" stroke-linejoin="round" stroke-linecap="round"/>
<rect x="514" y="354" width="24" height="18" rx="4" fill="#e6f4f3" stroke="#0b7a75" stroke-width="1.2"/>
<text x="526.0" y="367" font-family="DejaVu Sans, Arial, Helvetica, sans-serif" font-size="11" text-anchor="middle" font-weight="bold" fill="#0b7a75">P1</text>
<text x="542" y="368" font-family="DejaVu Sans, Arial, Helvetica, sans-serif" font-size="12" text-anchor="start" font-weight="normal" fill="#1f6fd1">→ затвор MOSFET</text>
<polyline points="500,396 512,396" fill="none" stroke="#1f6fd1" stroke-width="2.4" stroke-linejoin="round" stroke-linecap="round"/>
<rect x="514" y="387" width="45" height="18" rx="4" fill="#e6f4f3" stroke="#0b7a75" stroke-width="1.2"/>
<text x="536.5" y="400" font-family="DejaVu Sans, Arial, Helvetica, sans-serif" font-size="11" text-anchor="middle" font-weight="bold" fill="#0b7a75">servo</text>
<text x="563" y="401" font-family="DejaVu Sans, Arial, Helvetica, sans-serif" font-size="12" text-anchor="start" font-weight="normal" fill="#1f6fd1">→ сигнал серви</text>
<polyline points="500,429 512,429" fill="none" stroke="#1f6fd1" stroke-width="2.4" stroke-linejoin="round" stroke-linecap="round"/>
<text x="516" y="434" font-family="DejaVu Sans, Arial, Helvetica, sans-serif" font-size="12" text-anchor="start" font-weight="normal" fill="#1f6fd1">→ бузер</text>
<polyline points="500,462 512,462" fill="none" stroke="#1f6fd1" stroke-width="2.4" stroke-linejoin="round" stroke-linecap="round"/>
<text x="516" y="467" font-family="DejaVu Sans, Arial, Helvetica, sans-serif" font-size="12" text-anchor="start" font-weight="normal" fill="#5b6470">вбудований LED</text>
<polyline points="500,495 512,495" fill="none" stroke="#1f6fd1" stroke-width="2.4" stroke-linejoin="round" stroke-linecap="round"/>
<text x="516" y="500" font-family="DejaVu Sans, Arial, Helvetica, sans-serif" font-size="12" text-anchor="start" font-weight="normal" fill="#1f6fd1">← тумблер ARM</text>
<rect x="700" y="60" width="480" height="330" rx="10" fill="#f7f9fc" stroke="#b8c2cf" stroke-width="1.4"/>
<text x="714" y="84" font-family="DejaVu Sans, Arial, Helvetica, sans-serif" font-size="15" text-anchor="start" font-weight="bold" fill="#1b1b1b">ІЧ-канал ×4 (показано канал 1) — роз'єми B і E</text>
<line x1="730" y1="110" x2="750" y2="110" stroke="#f08c00" stroke-width="2.6" stroke-linecap="round"/>
<line x1="740" y1="110" x2="740" y2="120" stroke="#f08c00" stroke-width="2.4" stroke-linecap="round"/>
<text x="740" y="104" font-family="DejaVu Sans, Arial, Helvetica, sans-serif" font-size="12" text-anchor="middle" font-weight="bold" fill="#f08c00">+5V</text>
<line x1="740" y1="120" x2="740" y2="130.0" stroke="#1b1b1b" stroke-width="2.2" stroke-linecap="round"/>
<rect x="733" y="130.0" width="14" height="30.0" rx="0" fill="#fff" stroke="#1b1b1b" stroke-width="1.8"/>
<line x1="740" y1="160.0" x2="740" y2="170" stroke="#1b1b1b" stroke-width="2.2" stroke-linecap="round"/>
<text x="728" y="150.0" font-family="DejaVu Sans, Arial, Helvetica, sans-serif" font-size="12" text-anchor="end" font-weight="normal" fill="#1b1b1b">150 Ом</text>
<line x1="740" y1="170" x2="740" y2="185.0" stroke="#1b1b1b" stroke-width="2.2" stroke-linecap="round"/>
<line x1="740" y1="203.0" x2="740" y2="218" stroke="#1b1b1b" stroke-width="2.2" stroke-linecap="round"/>
<path d="M730,185.0 L750,185.0 L740,203.0 Z" fill="#fff" stroke="#1b1b1b" stroke-width="1.8" stroke-linejoin="round" stroke-linecap="round" />
<line x1="730" y1="203.0" x2="750" y2="203.0" stroke="#1b1b1b" stroke-width="2.2" stroke-linecap="round"/>
<path d="M752,188.0 l12,-8 m-5,0 l5,0 l0,5" fill="none" stroke="#c0392b" stroke-width="1.6" stroke-linejoin="round" stroke-linecap="round" />
<path d="M752,197.0 l12,-8 m-5,0 l5,0 l0,5" fill="none" stroke="#c0392b" stroke-width="1.6" stroke-linejoin="round" stroke-linecap="round" />
<text x="770" y="199.0" font-family="DejaVu Sans, Arial, Helvetica, sans-serif" font-size="12" text-anchor="start" font-weight="normal" fill="#1b1b1b"></text>
<line x1="740" y1="228" x2="740" y2="238" stroke="#222222" stroke-width="2.2" stroke-linecap="round"/>
<line x1="728" y1="238" x2="752" y2="238" stroke="#222222" stroke-width="2.2" stroke-linecap="round"/>
<line x1="732" y1="242" x2="748" y2="242" stroke="#222222" stroke-width="2.2" stroke-linecap="round"/>
<line x1="736" y1="246" x2="744" y2="246" stroke="#222222" stroke-width="2.2" stroke-linecap="round"/>
<text x="740" y="262" font-family="DejaVu Sans, Arial, Helvetica, sans-serif" font-size="11" text-anchor="middle" font-weight="normal" fill="#5b6470">ІЧ-LED</text>
<text x="740" y="277" font-family="DejaVu Sans, Arial, Helvetica, sans-serif" font-size="11" text-anchor="middle" font-weight="normal" fill="#5b6470">940 нм</text>
<path d="M772,196 q8,-8 16,0 t16,0 t16,0" fill="none" stroke="#c0392b" stroke-width="2" stroke-linejoin="round" stroke-linecap="round" />
<path d="M814,196 l-7,-5 m7,5 l-7,5" fill="none" stroke="#c0392b" stroke-width="2" stroke-linejoin="round" stroke-linecap="round" />
<text x="792" y="184" font-family="DejaVu Sans, Arial, Helvetica, sans-serif" font-size="11" text-anchor="middle" font-weight="normal" fill="#c0392b">промінь</text>
<line x1="840" y1="110" x2="860" y2="110" stroke="#f08c00" stroke-width="2.6" stroke-linecap="round"/>
<line x1="850" y1="110" x2="850" y2="120" stroke="#f08c00" stroke-width="2.4" stroke-linecap="round"/>
<text x="850" y="104" font-family="DejaVu Sans, Arial, Helvetica, sans-serif" font-size="12" text-anchor="middle" font-weight="bold" fill="#f08c00">+5V</text>
<line x1="850" y1="120" x2="850" y2="128.0" stroke="#1b1b1b" stroke-width="2.2" stroke-linecap="round"/>
<rect x="843" y="128.0" width="14" height="24.0" rx="0" fill="#fff" stroke="#1b1b1b" stroke-width="1.8"/>
<line x1="850" y1="152.0" x2="850" y2="160" stroke="#1b1b1b" stroke-width="2.2" stroke-linecap="round"/>
<text x="838" y="145.0" font-family="DejaVu Sans, Arial, Helvetica, sans-serif" font-size="12" text-anchor="end" font-weight="normal" fill="#1b1b1b">10 кОм</text>
<circle cx="850" cy="170" r="4" fill="#1b1b1b" stroke="#1b1b1b" stroke-width="1"/>
<line x1="850" y1="160" x2="850" y2="170" stroke="#1b1b1b" stroke-width="2.2" stroke-linecap="round"/>
<circle cx="850" cy="200" r="17" fill="#fff" stroke="#1b1b1b" stroke-width="1.8"/>
<line x1="843" y1="190" x2="843" y2="210" stroke="#1b1b1b" stroke-width="2.6" stroke-linecap="round"/>
<path d="M843,195 L852,184 L852,170" fill="none" stroke="#1b1b1b" stroke-width="2.2" stroke-linejoin="round" stroke-linecap="round" />
<path d="M843,205 L852,216 L852,228" fill="none" stroke="#1b1b1b" stroke-width="2.2" stroke-linejoin="round" stroke-linecap="round" />
<path d="M852,216 l-7,-1 l3,-6 Z" fill="#1b1b1b" stroke="#1b1b1b" stroke-width="1" stroke-linejoin="round" stroke-linecap="round" />
<path d="M822,190 l10,6 m-4,-6 l4,6 l-6,1" fill="none" stroke="#c0392b" stroke-width="1.6" stroke-linejoin="round" stroke-linecap="round" />
<line x1="850" y1="228" x2="850" y2="238" stroke="#1b1b1b" stroke-width="2.2" stroke-linecap="round"/>
<line x1="850" y1="238" x2="850" y2="248" stroke="#222222" stroke-width="2.2" stroke-linecap="round"/>
<line x1="838" y1="248" x2="862" y2="248" stroke="#222222" stroke-width="2.2" stroke-linecap="round"/>
<line x1="842" y1="252" x2="858" y2="252" stroke="#222222" stroke-width="2.2" stroke-linecap="round"/>
<line x1="846" y1="256" x2="854" y2="256" stroke="#222222" stroke-width="2.2" stroke-linecap="round"/>
<text x="836" y="272" font-family="DejaVu Sans, Arial, Helvetica, sans-serif" font-size="11" text-anchor="end" font-weight="normal" fill="#5b6470">TEFT4300</text>
<path d="M960,140 L960,250 L1040,195 Z" fill="#fff" stroke="#1b1b1b" stroke-width="2.2" stroke-linejoin="round" stroke-linecap="round" />
<text x="968" y="170" font-family="DejaVu Sans, Arial, Helvetica, sans-serif" font-size="15" text-anchor="start" font-weight="bold" fill="#1b1b1b">+</text>
<text x="968" y="232" font-family="DejaVu Sans, Arial, Helvetica, sans-serif" font-size="17" text-anchor="start" font-weight="bold" fill="#1b1b1b">−</text>
<text x="1000" y="270" font-family="DejaVu Sans, Arial, Helvetica, sans-serif" font-size="12" text-anchor="middle" font-weight="bold" fill="#1b1b1b">LM339 (¼)</text>
<polyline points="850,170 960,170" fill="none" stroke="#1b1b1b" stroke-width="2.2" stroke-linejoin="round" stroke-linecap="round"/>
<circle cx="910" cy="170" r="4" fill="#1b1b1b" stroke="#1b1b1b" stroke-width="1"/>
<polyline points="910,170 910,110 930,110" fill="none" stroke="#1b1b1b" stroke-width="2.2" stroke-linejoin="round" stroke-linecap="round"/>
<line x1="930" y1="110" x2="952.0" y2="110" stroke="#1b1b1b" stroke-width="2.2" stroke-linecap="round"/>
<rect x="952.0" y="103" width="66.0" height="14" rx="0" fill="#fff" stroke="#1b1b1b" stroke-width="1.8"/>
<line x1="1018.0" y1="110" x2="1040" y2="110" stroke="#1b1b1b" stroke-width="2.2" stroke-linecap="round"/>
<text x="985.0" y="98" font-family="DejaVu Sans, Arial, Helvetica, sans-serif" font-size="12" text-anchor="middle" font-weight="normal" fill="#1b1b1b">1 МОм (гістерезис)</text>
<polyline points="1040,110 1070,110 1070,195" fill="none" stroke="#1b1b1b" stroke-width="2.2" stroke-linejoin="round" stroke-linecap="round"/>
<line x1="895" y1="272" x2="915" y2="272" stroke="#f08c00" stroke-width="2.6" stroke-linecap="round"/>
<line x1="905" y1="272" x2="905" y2="282" stroke="#f08c00" stroke-width="2.4" stroke-linecap="round"/>
<text x="905" y="266" font-family="DejaVu Sans, Arial, Helvetica, sans-serif" font-size="12" text-anchor="middle" font-weight="bold" fill="#f08c00"></text>
<text x="885" y="272" font-family="DejaVu Sans, Arial, Helvetica, sans-serif" font-size="12" text-anchor="end" font-weight="bold" fill="#f08c00">+5V</text>
<line x1="905" y1="282" x2="905" y2="294.0" stroke="#1b1b1b" stroke-width="2.2" stroke-linecap="round"/>
<rect x="898" y="294.0" width="14" height="36.0" rx="0" fill="#fff" stroke="#1b1b1b" stroke-width="1.8"/>
<line x1="905" y1="330.0" x2="905" y2="342" stroke="#1b1b1b" stroke-width="2.2" stroke-linecap="round"/>
<text x="917" y="317.0" font-family="DejaVu Sans, Arial, Helvetica, sans-serif" font-size="12" text-anchor="start" font-weight="normal" fill="#1b1b1b"></text>
<path d="M931,312 L914,312" fill="none" stroke="#1b1b1b" stroke-width="2" stroke-linejoin="round" stroke-linecap="round" />
<path d="M914,312 l7,-5 M914,312 l7,5" fill="none" stroke="#1b1b1b" stroke-width="2" stroke-linejoin="round" stroke-linecap="round" />
<text x="893" y="317.0" font-family="DejaVu Sans, Arial, Helvetica, sans-serif" font-size="12" text-anchor="end" font-weight="normal" fill="#1b1b1b">10 кОм</text>
<line x1="905" y1="342" x2="905" y2="352" stroke="#222222" stroke-width="2.2" stroke-linecap="round"/>
<line x1="893" y1="352" x2="917" y2="352" stroke="#222222" stroke-width="2.2" stroke-linecap="round"/>
<line x1="897" y1="356" x2="913" y2="356" stroke="#222222" stroke-width="2.2" stroke-linecap="round"/>
<line x1="901" y1="360" x2="909" y2="360" stroke="#222222" stroke-width="2.2" stroke-linecap="round"/>
<polyline points="931,312 945,312 945,225 960,225" fill="none" stroke="#1b1b1b" stroke-width="2.2" stroke-linejoin="round" stroke-linecap="round"/>
<polyline points="1040,195 1150,195" fill="none" stroke="#1f6fd1" stroke-width="2.4" stroke-linejoin="round" stroke-linecap="round"/>
<circle cx="1070" cy="195" r="4" fill="#1b1b1b" stroke="#1b1b1b" stroke-width="1"/>
<circle cx="1110" cy="195" r="4" fill="#1b1b1b" stroke="#1b1b1b" stroke-width="1"/>
<line x1="1100" y1="130" x2="1120" y2="130" stroke="#f08c00" stroke-width="2.6" stroke-linecap="round"/>
<line x1="1110" y1="130" x2="1110" y2="140" stroke="#f08c00" stroke-width="2.4" stroke-linecap="round"/>
<text x="1110" y="124" font-family="DejaVu Sans, Arial, Helvetica, sans-serif" font-size="12" text-anchor="middle" font-weight="bold" fill="#f08c00">+5V</text>
<line x1="1110" y1="140" x2="1110" y2="151.0" stroke="#1b1b1b" stroke-width="2.2" stroke-linecap="round"/>
<rect x="1103" y="151.0" width="14" height="33.0" rx="0" fill="#fff" stroke="#1b1b1b" stroke-width="1.8"/>
<line x1="1110" y1="184.0" x2="1110" y2="195" stroke="#1b1b1b" stroke-width="2.2" stroke-linecap="round"/>
<text x="1122" y="172.5" font-family="DejaVu Sans, Arial, Helvetica, sans-serif" font-size="12" text-anchor="start" font-weight="normal" fill="#1b1b1b">10 кОм</text>
<text x="1150" y="222" font-family="DejaVu Sans, Arial, Helvetica, sans-serif" font-size="14" text-anchor="end" font-weight="bold" fill="#1f6fd1">→ D4</text>
<text x="1164" y="330" font-family="DejaVu Sans, Arial, Helvetica, sans-serif" font-size="11" text-anchor="end" font-weight="normal" fill="#5b6470">Промінь цілий → LOW,</text>
<text x="1164" y="345" font-family="DejaVu Sans, Arial, Helvetica, sans-serif" font-size="11" text-anchor="end" font-weight="normal" fill="#5b6470">перекритий → HIGH</text>
<rect x="700" y="405" width="480" height="215" rx="10" fill="#f7f9fc" stroke="#b8c2cf" stroke-width="1.4"/>
<text x="714" y="429" font-family="DejaVu Sans, Arial, Helvetica, sans-serif" font-size="15" text-anchor="start" font-weight="bold" fill="#1b1b1b">Соленоїд — роз'єм P1</text>
<text x="716" y="535" font-family="DejaVu Sans, Arial, Helvetica, sans-serif" font-size="13" text-anchor="start" font-weight="bold" fill="#1f6fd1">D9</text>
<polyline points="740,530 752,530" fill="none" stroke="#1f6fd1" stroke-width="2.4" stroke-linejoin="round" stroke-linecap="round"/>
<line x1="752" y1="530" x2="764.0" y2="530" stroke="#1f6fd1" stroke-width="2.2" stroke-linecap="round"/>
<rect x="764.0" y="523" width="36.0" height="14" rx="0" fill="#fff" stroke="#1b1b1b" stroke-width="1.8"/>
<line x1="800.0" y1="530" x2="812" y2="530" stroke="#1f6fd1" stroke-width="2.2" stroke-linecap="round"/>
<text x="782.0" y="518" font-family="DejaVu Sans, Arial, Helvetica, sans-serif" font-size="12" text-anchor="middle" font-weight="normal" fill="#1b1b1b">100 Ом</text>
<circle cx="830" cy="530" r="4" fill="#1b1b1b" stroke="#1b1b1b" stroke-width="1"/>
<polyline points="812,530 850,530" fill="none" stroke="#1f6fd1" stroke-width="2.4" stroke-linejoin="round" stroke-linecap="round"/>
<line x1="830" y1="530" x2="830" y2="540.0" stroke="#1b1b1b" stroke-width="2.2" stroke-linecap="round"/>
<rect x="823" y="540.0" width="14" height="30.0" rx="0" fill="#fff" stroke="#1b1b1b" stroke-width="1.8"/>
<line x1="830" y1="570.0" x2="830" y2="580" stroke="#1b1b1b" stroke-width="2.2" stroke-linecap="round"/>
<text x="818" y="560.0" font-family="DejaVu Sans, Arial, Helvetica, sans-serif" font-size="12" text-anchor="end" font-weight="normal" fill="#1b1b1b">10 кОм</text>
<line x1="830" y1="582" x2="830" y2="592" stroke="#222222" stroke-width="2.2" stroke-linecap="round"/>
<line x1="818" y1="592" x2="842" y2="592" stroke="#222222" stroke-width="2.2" stroke-linecap="round"/>
<line x1="822" y1="596" x2="838" y2="596" stroke="#222222" stroke-width="2.2" stroke-linecap="round"/>
<line x1="826" y1="600" x2="834" y2="600" stroke="#222222" stroke-width="2.2" stroke-linecap="round"/>
<line x1="850" y1="530" x2="866" y2="530" stroke="#1b1b1b" stroke-width="2.2" stroke-linecap="round"/>
<line x1="866" y1="514" x2="866" y2="546" stroke="#1b1b1b" stroke-width="2.6" stroke-linecap="round"/>
<line x1="872" y1="510" x2="872" y2="522" stroke="#1b1b1b" stroke-width="2.6" stroke-linecap="round"/>
<line x1="872" y1="524" x2="872" y2="536" stroke="#1b1b1b" stroke-width="2.6" stroke-linecap="round"/>
<line x1="872" y1="538" x2="872" y2="550" stroke="#1b1b1b" stroke-width="2.6" stroke-linecap="round"/>
<path d="M872,516 L880,516 L880,500" fill="none" stroke="#1b1b1b" stroke-width="2.2" stroke-linejoin="round" stroke-linecap="round" />
<path d="M872,544 L880,544 L880,560" fill="none" stroke="#1b1b1b" stroke-width="2.2" stroke-linejoin="round" stroke-linecap="round" />
<path d="M872,530 L880,530 L880,544" fill="none" stroke="#1b1b1b" stroke-width="2.2" stroke-linejoin="round" stroke-linecap="round" />
<path d="M873,530 l7,-4 l0,8 Z" fill="#1b1b1b" stroke="#1b1b1b" stroke-width="1" stroke-linejoin="round" stroke-linecap="round" />
<text x="888" y="534" font-family="DejaVu Sans, Arial, Helvetica, sans-serif" font-size="12" text-anchor="start" font-weight="bold" fill="#1b1b1b">IRLZ44N</text>
<text x="852" y="524" font-family="DejaVu Sans, Arial, Helvetica, sans-serif" font-size="10" text-anchor="start" font-weight="normal" fill="#5b6470">G</text>
<text x="884" y="512" font-family="DejaVu Sans, Arial, Helvetica, sans-serif" font-size="10" text-anchor="start" font-weight="normal" fill="#5b6470">D</text>
<text x="884" y="558" font-family="DejaVu Sans, Arial, Helvetica, sans-serif" font-size="10" text-anchor="start" font-weight="normal" fill="#5b6470">S</text>
<polyline points="880,560 880,592" fill="none" stroke="#222222" stroke-width="2.4" stroke-linejoin="round" stroke-linecap="round"/>
<line x1="880" y1="590" x2="880" y2="600" stroke="#222222" stroke-width="2.2" stroke-linecap="round"/>
<line x1="868" y1="600" x2="892" y2="600" stroke="#222222" stroke-width="2.2" stroke-linecap="round"/>
<line x1="872" y1="604" x2="888" y2="604" stroke="#222222" stroke-width="2.2" stroke-linecap="round"/>
<line x1="876" y1="608" x2="884" y2="608" stroke="#222222" stroke-width="2.2" stroke-linecap="round"/>
<polyline points="880,500 880,490 1000,490" fill="none" stroke="#1b1b1b" stroke-width="2.2" stroke-linejoin="round" stroke-linecap="round"/>
<line x1="990" y1="432" x2="1010" y2="432" stroke="#d62828" stroke-width="2.6" stroke-linecap="round"/>
<line x1="1000" y1="432" x2="1000" y2="442" stroke="#d62828" stroke-width="2.4" stroke-linecap="round"/>
<text x="1000" y="426" font-family="DejaVu Sans, Arial, Helvetica, sans-serif" font-size="12" text-anchor="middle" font-weight="bold" fill="#d62828">+12V</text>
<circle cx="1000" cy="446" r="4" fill="#1b1b1b" stroke="#1b1b1b" stroke-width="1"/>
<line x1="1000" y1="442" x2="1000" y2="448" stroke="#1b1b1b" stroke-width="2.2" stroke-linecap="round"/>
<path d="M1000,448 a8,4.5 0 0 1 0,9.0 a8,4.5 0 0 1 0,9.0 a8,4.5 0 0 1 0,9.0 a8,4.5 0 0 1 0,9.0" fill="none" stroke="#1b1b1b" stroke-width="2.2" stroke-linejoin="round" stroke-linecap="round" />
<line x1="1000" y1="484" x2="1000" y2="490" stroke="#1b1b1b" stroke-width="2.2" stroke-linecap="round"/>
<text x="984" y="471.0" font-family="DejaVu Sans, Arial, Helvetica, sans-serif" font-size="12" text-anchor="end" font-weight="normal" fill="#1b1b1b">соленоїд 12 В</text>
<circle cx="1000" cy="490" r="4" fill="#1b1b1b" stroke="#1b1b1b" stroke-width="1"/>
<polyline points="1000,446 1060,446" fill="none" stroke="#1b1b1b" stroke-width="2.2" stroke-linejoin="round" stroke-linecap="round"/>
<line x1="1060" y1="446" x2="1060" y2="459.0" stroke="#1b1b1b" stroke-width="2.2" stroke-linecap="round"/>
<line x1="1060" y1="477.0" x2="1060" y2="490" stroke="#1b1b1b" stroke-width="2.2" stroke-linecap="round"/>
<path d="M1050,477.0 L1070,477.0 L1060,459.0 Z" fill="#fff" stroke="#1b1b1b" stroke-width="1.8" stroke-linejoin="round" stroke-linecap="round" />
<line x1="1050" y1="459.0" x2="1070" y2="459.0" stroke="#1b1b1b" stroke-width="2.2" stroke-linecap="round"/>
<text x="1076" y="473.0" font-family="DejaVu Sans, Arial, Helvetica, sans-serif" font-size="12" text-anchor="start" font-weight="normal" fill="#1b1b1b">1N5819</text>
<polyline points="1060,490 1000,490" fill="none" stroke="#1b1b1b" stroke-width="2.2" stroke-linejoin="round" stroke-linecap="round"/>
<line x1="1120" y1="500" x2="1140" y2="500" stroke="#d62828" stroke-width="2.6" stroke-linecap="round"/>
<line x1="1130" y1="500" x2="1130" y2="510" stroke="#d62828" stroke-width="2.4" stroke-linecap="round"/>
<text x="1130" y="494" font-family="DejaVu Sans, Arial, Helvetica, sans-serif" font-size="12" text-anchor="middle" font-weight="bold" fill="#d62828">+12V</text>
<line x1="1130" y1="510" x2="1130" y2="531.0" stroke="#1b1b1b" stroke-width="2.2" stroke-linecap="round"/>
<line x1="1130" y1="539.0" x2="1130" y2="560" stroke="#1b1b1b" stroke-width="2.2" stroke-linecap="round"/>
<line x1="1118" y1="531.0" x2="1142" y2="531.0" stroke="#1b1b1b" stroke-width="2.6" stroke-linecap="round"/>
<path d="M1118,542.0 Q1130,536.0 1142,542.0" fill="none" stroke="#1b1b1b" stroke-width="2.6" stroke-linejoin="round" stroke-linecap="round" />
<text x="1114" y="529.0" font-family="DejaVu Sans, Arial, Helvetica, sans-serif" font-size="12" text-anchor="end" font-weight="normal" fill="#1b1b1b">+</text>
<text x="1112" y="540.0" font-family="DejaVu Sans, Arial, Helvetica, sans-serif" font-size="12" text-anchor="end" font-weight="normal" fill="#1b1b1b">2200 мкФ</text>
<line x1="1130" y1="562" x2="1130" y2="572" stroke="#222222" stroke-width="2.2" stroke-linecap="round"/>
<line x1="1118" y1="572" x2="1142" y2="572" stroke="#222222" stroke-width="2.2" stroke-linecap="round"/>
<line x1="1122" y1="576" x2="1138" y2="576" stroke="#222222" stroke-width="2.2" stroke-linecap="round"/>
<line x1="1126" y1="580" x2="1134" y2="580" stroke="#222222" stroke-width="2.2" stroke-linecap="round"/>
<rect x="700" y="635" width="480" height="250" rx="10" fill="#f7f9fc" stroke="#b8c2cf" stroke-width="1.4"/>
<text x="714" y="659" font-family="DejaVu Sans, Arial, Helvetica, sans-serif" font-size="15" text-anchor="start" font-weight="bold" fill="#1b1b1b">Серво (3-pin), кінцевик (S1), бузер і ARM (на основі)</text>
<rect x="870" y="670" width="110" height="56" rx="6" fill="#2f3b4a" stroke="#1d2530" stroke-width="1.6"/>
<circle cx="954" cy="698" r="12" fill="#dfe6ee" stroke="#1d2530" stroke-width="1.8"/>
<text x="878" y="692" font-family="DejaVu Sans, Arial, Helvetica, sans-serif" font-size="12" text-anchor="start" font-weight="bold" fill="#ffffff">MG996R</text>
<text x="878" y="712" font-family="DejaVu Sans, Arial, Helvetica, sans-serif" font-size="11" text-anchor="start" font-weight="normal" fill="#cfd8e3">серво</text>
<text x="716" y="689" font-family="DejaVu Sans, Arial, Helvetica, sans-serif" font-size="13" text-anchor="start" font-weight="bold" fill="#1f6fd1">D10</text>
<polyline points="752,684 870,684" fill="none" stroke="#1f6fd1" stroke-width="2.4" stroke-linejoin="round" stroke-linecap="round"/>
<polyline points="870,698 820,698" fill="none" stroke="#8e44ad" stroke-width="2.4" stroke-linejoin="round" stroke-linecap="round"/>
<text x="816" y="703" font-family="DejaVu Sans, Arial, Helvetica, sans-serif" font-size="11" text-anchor="end" font-weight="bold" fill="#8e44ad">V_servo</text>
<polyline points="870,712 850,712 850,718" fill="none" stroke="#222222" stroke-width="2.4" stroke-linejoin="round" stroke-linecap="round"/>
<line x1="850" y1="716" x2="850" y2="726" stroke="#222222" stroke-width="2.2" stroke-linecap="round"/>
<line x1="838" y1="726" x2="862" y2="726" stroke="#222222" stroke-width="2.2" stroke-linecap="round"/>
<line x1="842" y1="730" x2="858" y2="730" stroke="#222222" stroke-width="2.2" stroke-linecap="round"/>
<line x1="846" y1="734" x2="854" y2="734" stroke="#222222" stroke-width="2.2" stroke-linecap="round"/>
<text x="996" y="694" font-family="DejaVu Sans, Arial, Helvetica, sans-serif" font-size="11" text-anchor="start" font-weight="normal" fill="#5b6470">живлення лише</text>
<text x="996" y="709" font-family="DejaVu Sans, Arial, Helvetica, sans-serif" font-size="11" text-anchor="start" font-weight="normal" fill="#5b6470">від DC-DC</text>
<text x="716" y="775" font-family="DejaVu Sans, Arial, Helvetica, sans-serif" font-size="13" text-anchor="start" font-weight="bold" fill="#1f6fd1">D8</text>
<polyline points="752,770 790,770" fill="none" stroke="#1f6fd1" stroke-width="2.4" stroke-linejoin="round" stroke-linecap="round"/>
<circle cx="790" cy="770" r="3.5" fill="#fff" stroke="#1b1b1b" stroke-width="1.8"/>
<circle cx="830" cy="770" r="3.5" fill="#fff" stroke="#1b1b1b" stroke-width="1.8"/>
<line x1="793" y1="768" x2="828" y2="756" stroke="#1b1b1b" stroke-width="2.2" stroke-linecap="round"/>
<polyline points="833,770 850,770" fill="none" stroke="#222222" stroke-width="2.4" stroke-linejoin="round" stroke-linecap="round"/>
<line x1="850" y1="770" x2="850" y2="780" stroke="#222222" stroke-width="2.2" stroke-linecap="round"/>
<line x1="838" y1="780" x2="862" y2="780" stroke="#222222" stroke-width="2.2" stroke-linecap="round"/>
<line x1="842" y1="784" x2="858" y2="784" stroke="#222222" stroke-width="2.2" stroke-linecap="round"/>
<line x1="846" y1="788" x2="854" y2="788" stroke="#222222" stroke-width="2.2" stroke-linecap="round"/>
<text x="880" y="775" font-family="DejaVu Sans, Arial, Helvetica, sans-serif" font-size="12" text-anchor="start" font-weight="normal" fill="#1b1b1b">кінцевик (LOW = взведено)</text>
<text x="716" y="813" font-family="DejaVu Sans, Arial, Helvetica, sans-serif" font-size="13" text-anchor="start" font-weight="bold" fill="#1f6fd1">D11</text>
<polyline points="752,808 790,808" fill="none" stroke="#1f6fd1" stroke-width="2.4" stroke-linejoin="round" stroke-linecap="round"/>
<circle cx="806" cy="808" r="14" fill="#fff" stroke="#1b1b1b" stroke-width="1.8"/>
<text x="806" y="812" font-family="DejaVu Sans, Arial, Helvetica, sans-serif" font-size="13" text-anchor="middle" font-weight="normal" fill="#1b1b1b">♪</text>
<polyline points="820,808 850,808" fill="none" stroke="#222222" stroke-width="2.4" stroke-linejoin="round" stroke-linecap="round"/>
<line x1="850" y1="808" x2="850" y2="818" stroke="#222222" stroke-width="2.2" stroke-linecap="round"/>
<line x1="838" y1="818" x2="862" y2="818" stroke="#222222" stroke-width="2.2" stroke-linecap="round"/>
<line x1="842" y1="822" x2="858" y2="822" stroke="#222222" stroke-width="2.2" stroke-linecap="round"/>
<line x1="846" y1="826" x2="854" y2="826" stroke="#222222" stroke-width="2.2" stroke-linecap="round"/>
<text x="880" y="813" font-family="DejaVu Sans, Arial, Helvetica, sans-serif" font-size="12" text-anchor="start" font-weight="normal" fill="#1b1b1b">бузер (пасивний)</text>
<text x="716" y="851" font-family="DejaVu Sans, Arial, Helvetica, sans-serif" font-size="13" text-anchor="start" font-weight="bold" fill="#1f6fd1">A0</text>
<polyline points="752,846 790,846" fill="none" stroke="#1f6fd1" stroke-width="2.4" stroke-linejoin="round" stroke-linecap="round"/>
<circle cx="790" cy="846" r="3.5" fill="#fff" stroke="#1b1b1b" stroke-width="1.8"/>
<circle cx="830" cy="846" r="3.5" fill="#fff" stroke="#1b1b1b" stroke-width="1.8"/>
<line x1="793" y1="844" x2="828" y2="832" stroke="#1b1b1b" stroke-width="2.2" stroke-linecap="round"/>
<polyline points="833,846 850,846" fill="none" stroke="#222222" stroke-width="2.4" stroke-linejoin="round" stroke-linecap="round"/>
<line x1="850" y1="846" x2="850" y2="856" stroke="#222222" stroke-width="2.2" stroke-linecap="round"/>
<line x1="838" y1="856" x2="862" y2="856" stroke="#222222" stroke-width="2.2" stroke-linecap="round"/>
<line x1="842" y1="860" x2="858" y2="860" stroke="#222222" stroke-width="2.2" stroke-linecap="round"/>
<line x1="846" y1="864" x2="854" y2="864" stroke="#222222" stroke-width="2.2" stroke-linecap="round"/>
<text x="880" y="851" font-family="DejaVu Sans, Arial, Helvetica, sans-serif" font-size="12" text-anchor="start" font-weight="normal" fill="#1b1b1b">тумблер ARM (LOW = озброєно)</text>
<rect x="24" y="560" width="660" height="260" rx="10" fill="#f7f9fc" stroke="#b8c2cf" stroke-width="1.4"/>
<text x="38" y="584" font-family="DejaVu Sans, Arial, Helvetica, sans-serif" font-size="15" text-anchor="start" font-weight="bold" fill="#1b1b1b">Позначення</text>
<line x1="42" y1="606" x2="82" y2="606" stroke="#d62828" stroke-width="4" stroke-linecap="round"/>
<text x="94" y="610" font-family="DejaVu Sans, Arial, Helvetica, sans-serif" font-size="13" text-anchor="start" font-weight="normal" fill="#1b1b1b">+12 В (БЖ): соленоїд, VIN Nano, вхід DC-DC</text>
<line x1="42" y1="630" x2="82" y2="630" stroke="#f08c00" stroke-width="4" stroke-linecap="round"/>
<text x="94" y="634" font-family="DejaVu Sans, Arial, Helvetica, sans-serif" font-size="13" text-anchor="start" font-weight="normal" fill="#1b1b1b">+5 В логіка (пін 5V Nano): LM339, ІЧ-LED, підтяжки</text>
<line x1="42" y1="654" x2="82" y2="654" stroke="#8e44ad" stroke-width="4" stroke-linecap="round"/>
<text x="94" y="658" font-family="DejaVu Sans, Arial, Helvetica, sans-serif" font-size="13" text-anchor="start" font-weight="normal" fill="#1b1b1b">V_servo 5–6 В (DC-DC): лише серво</text>
<line x1="42" y1="678" x2="82" y2="678" stroke="#1f6fd1" stroke-width="4" stroke-linecap="round"/>
<text x="94" y="682" font-family="DejaVu Sans, Arial, Helvetica, sans-serif" font-size="13" text-anchor="start" font-weight="normal" fill="#1b1b1b">сигнали</text>
<line x1="42" y1="702" x2="82" y2="702" stroke="#222222" stroke-width="4" stroke-linecap="round"/>
<text x="94" y="706" font-family="DejaVu Sans, Arial, Helvetica, sans-serif" font-size="13" text-anchor="start" font-weight="normal" fill="#1b1b1b">земля (⏚) — спільна для всього</text>
<text x="42" y="730" font-family="DejaVu Sans, Arial, Helvetica, sans-serif" font-size="12" text-anchor="start" font-weight="normal" fill="#5b6470">Силові землі (соленоїд, серво) — зіркою до мінуса БЖ, не через Nano.</text>
<text x="42" y="750" font-family="DejaVu Sans, Arial, Helvetica, sans-serif" font-size="12" text-anchor="start" font-weight="normal" fill="#5b6470">LM339: пін 3 → +5V, пін 12 → ⏚, 100 нФ між ними.</text>
<text x="42" y="770" font-family="DejaVu Sans, Arial, Helvetica, sans-serif" font-size="12" text-anchor="start" font-weight="normal" fill="#5b6470">Канали (IN+, IN−, OUT): 1 — 5, 4, 2 · 2 — 7, 6, 1 · 3 — 9, 8, 14 · 4 — 11, 10, 13.</text>
<text x="42" y="790" font-family="DejaVu Sans, Arial, Helvetica, sans-serif" font-size="12" text-anchor="start" font-weight="normal" fill="#5b6470">Трубки з термоусадки на фототранзистори — від стороннього світла.</text>
<text x="42" y="810" font-family="DejaVu Sans, Arial, Helvetica, sans-serif" font-size="12" text-anchor="start" font-weight="normal" fill="#5b6470">Зелені мітки — роз'єм основи JST-XH і контакт (B·3 = роз'єм B, контакт 3): modules-connectors.svg.</text>
</svg>
